<mxfile host="app.diagrams.net" modified="2024-06-18T14:55:34.511Z" agent="Mozilla/5.0 (Windows NT 10.0; Win64; x64) AppleWebKit/537.36 (KHTML, like Gecko) Chrome/126.0.0.0 Safari/537.36 Edg/126.0.0.0" version="24.5.5" etag="m9cj_WAZxFjIPpQF2GH_" type="github">
  <diagram name="PÃ¡gina-1" id="0b4USbaF7EnxeBoQmIzv">
    <mxGraphModel>
      <root>
        <mxCell id="0" />
        <mxCell id="1" parent="0" />
      </root>
    </mxGraphModel>
  </diagram>
</mxfile>
